<mxfile host="app.diagrams.net" modified="2024-01-11T11:46:15.676Z" agent="Mozilla/5.0 (X11; Linux x86_64) AppleWebKit/537.36 (KHTML, like Gecko) Chrome/120.0.0.0 Safari/537.36" etag="8PLa2x7c5C2tSI7fuXLE" version="22.1.18" type="github">
  <diagram name="Page-1" id="wWfS-juIenpCV8Vcmi0x">
    <mxGraphModel dx="2899" dy="1133" grid="1" gridSize="10" guides="1" tooltips="1" connect="1" arrows="1" fold="1" page="1" pageScale="1" pageWidth="850" pageHeight="1100" math="0" shadow="0">
      <root>
        <mxCell id="0" />
        <mxCell id="1" parent="0" />
        <mxCell id="6ehJmkL4EzkzrGOhJP_l-17" value="" style="sketch=0;outlineConnect=0;fontColor=#232F3E;gradientColor=none;fillColor=#3399FF;strokeColor=none;dashed=0;verticalLabelPosition=bottom;verticalAlign=top;align=center;html=1;fontSize=12;fontStyle=0;aspect=fixed;pointerEvents=1;shape=mxgraph.aws4.mq_broker;" parent="1" vertex="1">
          <mxGeometry x="95.12000000000006" y="935" width="124.35" height="110" as="geometry" />
        </mxCell>
        <mxCell id="6ehJmkL4EzkzrGOhJP_l-40" value="" style="group" parent="1" vertex="1" connectable="0">
          <mxGeometry x="-540" y="40" width="1002.7099999999999" height="950" as="geometry" />
        </mxCell>
        <mxCell id="6ehJmkL4EzkzrGOhJP_l-3" value="" style="image;sketch=0;aspect=fixed;html=1;points=[];align=center;fontSize=12;image=img/lib/mscae/Intune_App_Protection.svg;" parent="6ehJmkL4EzkzrGOhJP_l-40" vertex="1">
          <mxGeometry x="367.3" y="355" width="162.5" height="130" as="geometry" />
        </mxCell>
        <mxCell id="6ehJmkL4EzkzrGOhJP_l-4" value="" style="group" parent="6ehJmkL4EzkzrGOhJP_l-40" vertex="1" connectable="0">
          <mxGeometry x="627.3" y="455" width="140" height="310" as="geometry" />
        </mxCell>
        <mxCell id="6ehJmkL4EzkzrGOhJP_l-5" value="Client" style="swimlane;fontStyle=1;align=center;verticalAlign=middle;childLayout=stackLayout;horizontal=1;startSize=29;horizontalStack=0;resizeParent=1;resizeParentMax=0;resizeLast=0;collapsible=0;marginBottom=0;html=1;whiteSpace=wrap;" parent="6ehJmkL4EzkzrGOhJP_l-4" vertex="1">
          <mxGeometry width="140" height="54" as="geometry" />
        </mxCell>
        <mxCell id="6ehJmkL4EzkzrGOhJP_l-6" value="credential" style="text;html=1;strokeColor=none;fillColor=none;align=left;verticalAlign=middle;spacingLeft=4;spacingRight=4;overflow=hidden;rotatable=0;points=[[0,0.5],[1,0.5]];portConstraint=eastwest;whiteSpace=wrap;" parent="6ehJmkL4EzkzrGOhJP_l-5" vertex="1">
          <mxGeometry y="29" width="140" height="25" as="geometry" />
        </mxCell>
        <mxCell id="6ehJmkL4EzkzrGOhJP_l-9" value="Customer" style="swimlane;fontStyle=1;align=center;verticalAlign=middle;childLayout=stackLayout;horizontal=1;startSize=29;horizontalStack=0;resizeParent=1;resizeParentMax=0;resizeLast=0;collapsible=0;marginBottom=0;html=1;whiteSpace=wrap;" parent="6ehJmkL4EzkzrGOhJP_l-4" vertex="1">
          <mxGeometry y="90" width="140" height="100" as="geometry" />
        </mxCell>
        <mxCell id="6ehJmkL4EzkzrGOhJP_l-10" value="id&lt;br&gt;name&lt;br&gt;domain&lt;br&gt;apps" style="text;html=1;strokeColor=none;fillColor=none;align=left;verticalAlign=middle;spacingLeft=4;spacingRight=4;overflow=hidden;rotatable=0;points=[[0,0.5],[1,0.5]];portConstraint=eastwest;whiteSpace=wrap;" parent="6ehJmkL4EzkzrGOhJP_l-9" vertex="1">
          <mxGeometry y="29" width="140" height="71" as="geometry" />
        </mxCell>
        <mxCell id="6ehJmkL4EzkzrGOhJP_l-21" value="COMMENT" style="swimlane;fontStyle=1;align=center;verticalAlign=middle;childLayout=stackLayout;horizontal=1;startSize=29;horizontalStack=0;resizeParent=1;resizeParentMax=0;resizeLast=0;collapsible=0;marginBottom=0;html=1;whiteSpace=wrap;" parent="6ehJmkL4EzkzrGOhJP_l-4" vertex="1">
          <mxGeometry y="220" width="140" height="100" as="geometry" />
        </mxCell>
        <mxCell id="6ehJmkL4EzkzrGOhJP_l-22" value="id&lt;br&gt;name&lt;br&gt;domain&lt;br&gt;apps" style="text;html=1;strokeColor=none;fillColor=none;align=left;verticalAlign=middle;spacingLeft=4;spacingRight=4;overflow=hidden;rotatable=0;points=[[0,0.5],[1,0.5]];portConstraint=eastwest;whiteSpace=wrap;" parent="6ehJmkL4EzkzrGOhJP_l-21" vertex="1">
          <mxGeometry y="29" width="140" height="71" as="geometry" />
        </mxCell>
        <mxCell id="6ehJmkL4EzkzrGOhJP_l-11" value="" style="image;aspect=fixed;perimeter=ellipsePerimeter;html=1;align=center;shadow=0;dashed=0;spacingTop=3;image=img/lib/active_directory/database.svg;" parent="6ehJmkL4EzkzrGOhJP_l-40" vertex="1">
          <mxGeometry x="847.3" y="362.5" width="155.41" height="115" as="geometry" />
        </mxCell>
        <mxCell id="6ehJmkL4EzkzrGOhJP_l-1" style="edgeStyle=orthogonalEdgeStyle;rounded=0;orthogonalLoop=1;jettySize=auto;html=1;entryX=0;entryY=0.5;entryDx=0;entryDy=0;fillColor=#d5e8d4;strokeColor=#82b366;strokeWidth=4;" parent="6ehJmkL4EzkzrGOhJP_l-40" source="6ehJmkL4EzkzrGOhJP_l-3" target="6ehJmkL4EzkzrGOhJP_l-11" edge="1">
          <mxGeometry relative="1" as="geometry" />
        </mxCell>
        <mxCell id="6ehJmkL4EzkzrGOhJP_l-12" value="&lt;font style=&quot;font-size: 18px;&quot;&gt;GET&lt;/font&gt;" style="text;html=1;align=center;verticalAlign=middle;resizable=0;points=[];autosize=1;strokeColor=#82b366;fillColor=#d5e8d4;" parent="6ehJmkL4EzkzrGOhJP_l-40" vertex="1">
          <mxGeometry x="667.29" y="362.5" width="60" height="40" as="geometry" />
        </mxCell>
        <mxCell id="6ehJmkL4EzkzrGOhJP_l-15" value="&lt;font style=&quot;font-size: 18px;&quot;&gt;NSQL&lt;/font&gt;" style="text;html=1;align=center;verticalAlign=middle;resizable=0;points=[];autosize=1;strokeColor=none;fillColor=none;" parent="6ehJmkL4EzkzrGOhJP_l-40" vertex="1">
          <mxGeometry x="890.01" y="315" width="70" height="40" as="geometry" />
        </mxCell>
        <mxCell id="6ehJmkL4EzkzrGOhJP_l-16" value="&lt;font style=&quot;font-size: 22px;&quot;&gt;&lt;b&gt;COMMENTS BASIC STRUCTURE&lt;/b&gt;&lt;/font&gt;" style="text;html=1;align=center;verticalAlign=middle;resizable=0;points=[];autosize=1;strokeColor=none;fillColor=none;" parent="6ehJmkL4EzkzrGOhJP_l-40" vertex="1">
          <mxGeometry x="350" width="370" height="40" as="geometry" />
        </mxCell>
        <mxCell id="6ehJmkL4EzkzrGOhJP_l-25" style="edgeStyle=orthogonalEdgeStyle;rounded=0;orthogonalLoop=1;jettySize=auto;html=1;fillColor=#dae8fc;strokeColor=#6c8ebf;strokeWidth=4;" parent="6ehJmkL4EzkzrGOhJP_l-40" source="6ehJmkL4EzkzrGOhJP_l-17" target="6ehJmkL4EzkzrGOhJP_l-11" edge="1">
          <mxGeometry relative="1" as="geometry" />
        </mxCell>
        <mxCell id="6ehJmkL4EzkzrGOhJP_l-23" value="&lt;font style=&quot;font-size: 18px;&quot;&gt;BROKER&lt;/font&gt;" style="text;html=1;align=center;verticalAlign=middle;resizable=0;points=[];autosize=1;strokeColor=none;fillColor=none;" parent="6ehJmkL4EzkzrGOhJP_l-40" vertex="1">
          <mxGeometry x="647.3" y="855" width="100" height="40" as="geometry" />
        </mxCell>
        <mxCell id="6ehJmkL4EzkzrGOhJP_l-28" value="" style="sketch=0;points=[[0,0,0],[0.25,0,0],[0.5,0,0],[0.75,0,0],[1,0,0],[0,1,0],[0.25,1,0],[0.5,1,0],[0.75,1,0],[1,1,0],[0,0.25,0],[0,0.5,0],[0,0.75,0],[1,0.25,0],[1,0.5,0],[1,0.75,0]];outlineConnect=0;fontColor=#232F3E;fillColor=#99CCFF;strokeColor=#ffffff;dashed=0;verticalLabelPosition=bottom;verticalAlign=top;align=center;html=1;fontSize=12;fontStyle=0;aspect=fixed;shape=mxgraph.aws4.resourceIcon;resIcon=mxgraph.aws4.memorydb_for_redis;" parent="6ehJmkL4EzkzrGOhJP_l-40" vertex="1">
          <mxGeometry x="637.3" y="105" width="110" height="110" as="geometry" />
        </mxCell>
        <mxCell id="6ehJmkL4EzkzrGOhJP_l-29" style="edgeStyle=orthogonalEdgeStyle;rounded=0;orthogonalLoop=1;jettySize=auto;html=1;entryX=0;entryY=0.5;entryDx=0;entryDy=0;entryPerimeter=0;fillColor=#dae8fc;strokeColor=#000000;strokeWidth=4;" parent="6ehJmkL4EzkzrGOhJP_l-40" source="6ehJmkL4EzkzrGOhJP_l-3" target="6ehJmkL4EzkzrGOhJP_l-28" edge="1">
          <mxGeometry relative="1" as="geometry">
            <Array as="points">
              <mxPoint x="440" y="160" />
            </Array>
          </mxGeometry>
        </mxCell>
        <mxCell id="6ehJmkL4EzkzrGOhJP_l-30" value="&lt;font style=&quot;font-size: 18px;&quot;&gt;SESSION&lt;br&gt;STORAGE&lt;br&gt;&lt;/font&gt;" style="text;html=1;align=center;verticalAlign=middle;resizable=0;points=[];autosize=1;strokeColor=none;fillColor=none;" parent="6ehJmkL4EzkzrGOhJP_l-40" vertex="1">
          <mxGeometry x="480" y="165" width="110" height="60" as="geometry" />
        </mxCell>
        <mxCell id="6ehJmkL4EzkzrGOhJP_l-33" style="edgeStyle=orthogonalEdgeStyle;rounded=0;orthogonalLoop=1;jettySize=auto;html=1;exitX=1;exitY=0.5;exitDx=0;exitDy=0;exitPerimeter=0;strokeWidth=4;fillColor=#d5e8d4;strokeColor=#82b366;" parent="6ehJmkL4EzkzrGOhJP_l-40" source="6ehJmkL4EzkzrGOhJP_l-31" edge="1">
          <mxGeometry relative="1" as="geometry">
            <mxPoint x="360" y="405" as="targetPoint" />
          </mxGeometry>
        </mxCell>
        <mxCell id="6ehJmkL4EzkzrGOhJP_l-35" style="edgeStyle=orthogonalEdgeStyle;rounded=0;orthogonalLoop=1;jettySize=auto;html=1;fillColor=#dae8fc;strokeColor=#6c8ebf;strokeWidth=4;" parent="6ehJmkL4EzkzrGOhJP_l-40" source="6ehJmkL4EzkzrGOhJP_l-31" edge="1">
          <mxGeometry relative="1" as="geometry">
            <mxPoint x="430" y="495" as="targetPoint" />
            <Array as="points">
              <mxPoint x="60" y="545" />
              <mxPoint x="431" y="545" />
            </Array>
          </mxGeometry>
        </mxCell>
        <mxCell id="6ehJmkL4EzkzrGOhJP_l-31" value="" style="shadow=0;dashed=0;html=1;strokeColor=none;shape=mxgraph.mscae.enterprise.web;fillColor=#000033;rounded=1;fontSize=11;fontColor=#FFFFFF;align=center;" parent="6ehJmkL4EzkzrGOhJP_l-40" vertex="1">
          <mxGeometry y="345" width="120" height="120" as="geometry" />
        </mxCell>
        <mxCell id="6ehJmkL4EzkzrGOhJP_l-32" value="&lt;font style=&quot;font-size: 18px;&quot;&gt;CLIENT&lt;/font&gt;" style="text;html=1;align=center;verticalAlign=middle;resizable=0;points=[];autosize=1;strokeColor=none;fillColor=none;" parent="6ehJmkL4EzkzrGOhJP_l-40" vertex="1">
          <mxGeometry x="75.00000000000006" y="295" width="90" height="40" as="geometry" />
        </mxCell>
        <mxCell id="6ehJmkL4EzkzrGOhJP_l-34" value="&lt;font style=&quot;font-size: 18px;&quot;&gt;GET&lt;/font&gt;" style="text;html=1;align=center;verticalAlign=middle;resizable=0;points=[];autosize=1;strokeColor=#82b366;fillColor=#d5e8d4;" parent="6ehJmkL4EzkzrGOhJP_l-40" vertex="1">
          <mxGeometry x="225.00000000000006" y="355" width="60" height="40" as="geometry" />
        </mxCell>
        <mxCell id="6ehJmkL4EzkzrGOhJP_l-36" value="&lt;font style=&quot;font-size: 18px;&quot;&gt;PUT&lt;/font&gt;" style="text;html=1;align=center;verticalAlign=middle;resizable=0;points=[];autosize=1;strokeColor=#6c8ebf;fillColor=#dae8fc;" parent="6ehJmkL4EzkzrGOhJP_l-40" vertex="1">
          <mxGeometry x="200.00000000000006" y="495" width="60" height="40" as="geometry" />
        </mxCell>
        <mxCell id="6ehJmkL4EzkzrGOhJP_l-37" value="&lt;font style=&quot;font-size: 18px;&quot;&gt;PUT&lt;/font&gt;" style="text;html=1;align=center;verticalAlign=middle;resizable=0;points=[];autosize=1;strokeColor=#6c8ebf;fillColor=#dae8fc;" parent="6ehJmkL4EzkzrGOhJP_l-40" vertex="1">
          <mxGeometry x="440.00000000000006" y="775" width="60" height="40" as="geometry" />
        </mxCell>
        <mxCell id="6ehJmkL4EzkzrGOhJP_l-39" value="&lt;font style=&quot;font-size: 18px;&quot;&gt;PUT&lt;/font&gt;" style="text;html=1;align=center;verticalAlign=middle;resizable=0;points=[];autosize=1;strokeColor=#6c8ebf;fillColor=#dae8fc;" parent="6ehJmkL4EzkzrGOhJP_l-40" vertex="1">
          <mxGeometry x="847.3000000000001" y="775" width="60" height="40" as="geometry" />
        </mxCell>
        <mxCell id="6ehJmkL4EzkzrGOhJP_l-27" style="edgeStyle=orthogonalEdgeStyle;rounded=0;orthogonalLoop=1;jettySize=auto;html=1;fillColor=#dae8fc;strokeColor=#6c8ebf;strokeWidth=4;" parent="1" source="6ehJmkL4EzkzrGOhJP_l-3" target="6ehJmkL4EzkzrGOhJP_l-17" edge="1">
          <mxGeometry relative="1" as="geometry">
            <Array as="points">
              <mxPoint x="-91" y="990" />
            </Array>
          </mxGeometry>
        </mxCell>
      </root>
    </mxGraphModel>
  </diagram>
</mxfile>
